<?xml version="1.0" encoding="iso-8859-1"?>
<!-- Uploaded to: SVG Repo, www.svgrepo.com, Generator: SVG Repo Mixer Tools -->
<svg version="1.1" id="Layer_1" xmlns="http://www.w3.org/2000/svg" xmlns:xlink="http://www.w3.org/1999/xlink" 
	 viewBox="0 0 512 512" xml:space="preserve">
<polygon style="fill:#D0FBFD;" points="449.362,8.17 449.362,438.468 394.894,460.255 416.681,8.17 "/>
<polygon style="fill:#F0FEFF;" points="62.638,8.17 62.638,503.83 384,503.83 416.681,449.362 416.681,8.17 "/>
<polygon style="fill:#FF9269;" points="384,73.532 384,177.021 351.319,177.021 318.638,125.277 351.319,73.532 "/>
<rect x="128" y="73.532" style="fill:#FFB082;" width="223.319" height="103.489"/>
<polygon style="fill:#50D1DD;" points="449.362,438.468 384,503.83 384,438.468 416.681,438.468 "/>
<path d="M449.362,0H62.638c-4.513,0-8.17,3.658-8.17,8.17v495.66c0,4.512,3.657,8.17,8.17,8.17H384c2.167,0,4.244-0.861,5.778-2.393
	l65.362-65.362c1.532-1.532,2.392-3.61,2.392-5.777V8.17C457.532,3.658,453.875,0,449.362,0z M70.809,16.34h370.383v413.957H384
	c-4.513,0-8.17,3.658-8.17,8.17v57.191H70.809V16.34z M429.638,446.638l-37.468,37.468v-37.468H429.638z"/>
<path d="M302.298,364.936H128c-4.513,0-8.17,3.658-8.17,8.17c0,4.512,3.657,8.17,8.17,8.17h174.298c4.513,0,8.17-3.658,8.17-8.17
	C310.468,368.594,306.811,364.936,302.298,364.936z"/>
<path d="M128,348.596h256c4.513,0,8.17-3.658,8.17-8.17c0-4.512-3.657-8.17-8.17-8.17H128c-4.513,0-8.17,3.658-8.17,8.17
	C119.83,344.938,123.487,348.596,128,348.596z"/>
<path d="M128,315.915h256c4.513,0,8.17-3.658,8.17-8.17c0-4.512-3.657-8.17-8.17-8.17H128c-4.513,0-8.17,3.658-8.17,8.17
	C119.83,312.257,123.487,315.915,128,315.915z"/>
<path d="M128,283.234h256c4.513,0,8.17-3.658,8.17-8.17c0-4.512-3.657-8.17-8.17-8.17H128c-4.513,0-8.17,3.658-8.17,8.17
	C119.83,279.576,123.487,283.234,128,283.234z"/>
<path d="M128,250.553h256c4.513,0,8.17-3.658,8.17-8.17c0-4.512-3.657-8.17-8.17-8.17H128c-4.513,0-8.17,3.658-8.17,8.17
	C119.83,246.895,123.487,250.553,128,250.553z"/>
<path d="M215.149,430.298H128c-4.513,0-8.17,3.658-8.17,8.17c0,4.512,3.657,8.17,8.17,8.17h87.149c4.513,0,8.17-3.658,8.17-8.17
	C223.319,433.956,219.662,430.298,215.149,430.298z"/>
<path d="M128,185.191h32.681c4.513,0,8.17-3.658,8.17-8.17s-3.657-8.17-8.17-8.17H136.17V81.702h239.66v87.149H193.362
	c-4.513,0-8.17,3.658-8.17,8.17s3.657,8.17,8.17,8.17H384c4.513,0,8.17-3.658,8.17-8.17V73.532c0-4.512-3.657-8.17-8.17-8.17H128
	c-4.513,0-8.17,3.658-8.17,8.17v103.489C119.83,181.533,123.487,185.191,128,185.191z"/>
</svg>